<?xml version="1.0" encoding="UTF-8" standalone="no"?>
<!-- Created with Inkscape (http://www.inkscape.org/) -->

<svg
   xmlns:dc="http://purl.org/dc/elements/1.1/"
   xmlns:cc="http://creativecommons.org/ns#"
   xmlns:rdf="http://www.w3.org/1999/02/22-rdf-syntax-ns#"
   xmlns:svg="http://www.w3.org/2000/svg"
   xmlns="http://www.w3.org/2000/svg"
   xmlns:xlink="http://www.w3.org/1999/xlink"
   xmlns:sodipodi="http://sodipodi.sourceforge.net/DTD/sodipodi-0.dtd"
   xmlns:inkscape="http://www.inkscape.org/namespaces/inkscape"
   width="426.67728mm"
   height="69.022606mm"
   viewBox="0 0 426.67728 69.022606"
   version="1.1"
   id="svg8"
   sodipodi:docname="spriale.svg"
   inkscape:version="0.92.4 (5da689c313, 2019-01-14)">
  <defs
     id="defs2">
    <linearGradient
       inkscape:collect="always"
       id="linearGradient2756">
      <stop
         style="stop-color:#000000;stop-opacity:1;"
         offset="0"
         id="stop2752" />
      <stop
         style="stop-color:#000000;stop-opacity:0;"
         offset="1"
         id="stop2754" />
    </linearGradient>
    <marker
       inkscape:stockid="DotM"
       orient="auto"
       refY="0"
       refX="0"
       id="DotM"
       style="overflow:visible"
       inkscape:isstock="true">
      <path
         id="path887"
         d="m -2.5,-1 c 0,2.76 -2.24,5 -5,5 -2.76,0 -5,-2.24 -5,-5 0,-2.76 2.24,-5 5,-5 2.76,0 5,2.24 5,5 z"
         style="fill:#000000;fill-opacity:1;fill-rule:evenodd;stroke:#000000;stroke-width:1.00000003pt;stroke-opacity:1"
         transform="matrix(0.4,0,0,0.4,2.96,0.4)"
         inkscape:connector-curvature="0" />
    </marker>
    <marker
       inkscape:stockid="Arrow1Lstart"
       orient="auto"
       refY="0"
       refX="0"
       id="Arrow1Lstart"
       style="overflow:visible"
       inkscape:isstock="true">
      <path
         id="path823"
         d="M 0,0 5,-5 -12.5,0 5,5 Z"
         style="fill:#000000;fill-opacity:1;fill-rule:evenodd;stroke:#000000;stroke-width:1.00000003pt;stroke-opacity:1"
         transform="matrix(0.8,0,0,0.8,10,0)"
         inkscape:connector-curvature="0" />
    </marker>
    <marker
       inkscape:stockid="Arrow2Lstart"
       orient="auto"
       refY="0"
       refX="0"
       id="Arrow2Lstart"
       style="overflow:visible"
       inkscape:isstock="true">
      <path
         id="path841"
         style="fill:#000000;fill-opacity:1;fill-rule:evenodd;stroke:#000000;stroke-width:0.625;stroke-linejoin:round;stroke-opacity:1"
         d="M 8.7185878,4.0337352 -2.2072895,0.01601326 8.7185884,-4.0017078 c -1.7454984,2.3720609 -1.7354408,5.6174519 -6e-7,8.035443 z"
         transform="matrix(1.1,0,0,1.1,1.1,0)"
         inkscape:connector-curvature="0" />
    </marker>
    <linearGradient
       inkscape:collect="always"
       xlink:href="#linearGradient2756"
       id="linearGradient2758"
       x1="-22.832693"
       y1="-9.4806957"
       x2="274.73569"
       y2="-9.4806957"
       gradientUnits="userSpaceOnUse" />
  </defs>
  <sodipodi:namedview
     id="base"
     pagecolor="#ffffff"
     bordercolor="#666666"
     borderopacity="1.0"
     inkscape:pageopacity="0.0"
     inkscape:pageshadow="2"
     inkscape:zoom="0.5"
     inkscape:cx="806.47464"
     inkscape:cy="-300.26236"
     inkscape:document-units="mm"
     inkscape:current-layer="layer1"
     showgrid="false" />
  <metadata
     id="metadata5">
    <rdf:RDF>
      <cc:Work
         rdf:about="">
        <dc:format>image/svg+xml</dc:format>
        <dc:type
           rdf:resource="http://purl.org/dc/dcmitype/StillImage" />
        <dc:title></dc:title>
      </cc:Work>
    </rdf:RDF>
  </metadata>
  <g
     inkscape:label="Layer 1"
     inkscape:groupmode="layer"
     id="layer1"
     transform="translate(121.78097,36.116359)">
    <text
       xml:space="preserve"
       style="font-style:normal;font-weight:normal;font-size:13.96181011px;line-height:1.25;font-family:sans-serif;letter-spacing:0px;word-spacing:0px;fill:#000000;fill-opacity:1;stroke:#000000;stroke-width:0.34904528;stroke-opacity:1"
       x="-20.644384"
       y="-10.124604"
       id="text817"
       transform="scale(1.2121418,0.82498598)"><tspan
         sodipodi:role="line"
         id="tspan815"
         x="-20.644384"
         y="-10.124604"
         style="font-style:normal;font-variant:normal;font-weight:normal;font-stretch:normal;font-size:39.51111221px;font-family:'Prociono TT';-inkscape-font-specification:'Prociono TT, Normal';font-variant-ligatures:normal;font-variant-caps:normal;font-variant-numeric:normal;font-feature-settings:normal;text-align:start;writing-mode:lr-tb;text-anchor:start;stroke:#000000;stroke-width:0.34904528;stroke-opacity:1">the systemic</tspan><tspan
         sodipodi:role="line"
         x="-20.644384"
         y="49.672642"
         style="font-style:normal;font-variant:normal;font-weight:normal;font-stretch:normal;font-size:50.79999924px;font-family:'Prociono TT';-inkscape-font-specification:'Prociono TT, Normal';font-variant-ligatures:normal;font-variant-caps:normal;font-variant-numeric:normal;font-feature-settings:normal;text-align:start;writing-mode:lr-tb;text-anchor:start;stroke:#000000;stroke-width:0.34904528;stroke-opacity:1"
         id="tspan819"
         dy="-22.211967">programmer</tspan></text>
    <flowRoot
       xml:space="preserve"
       id="flowRoot2760"
       style="font-style:normal;font-weight:normal;font-size:40px;line-height:1.25;font-family:sans-serif;letter-spacing:0px;word-spacing:0px;fill:#000000;fill-opacity:1;stroke:none"
       transform="scale(0.26458333)"><flowRegion
         id="flowRegion2762"><rect
           id="rect2764"
           width="0"
           height="48.484848"
           x="268.18182"
           y="-169.90459" /></flowRegion><flowPara
         id="flowPara2766" /></flowRoot>    <path
       sodipodi:type="spiral"
       style="fill:none;fill-rule:evenodd;stroke:#000000;stroke-width:8.76500034;stroke-miterlimit:4;stroke-dasharray:17.53000032, 8.76500016, 4.38250008, 8.76500016;stroke-dashoffset:36.81299973"
       id="path842"
       sodipodi:cx="-117.91501"
       sodipodi:cy="95.937019"
       sodipodi:expansion="1"
       sodipodi:revolution="3"
       sodipodi:radius="33.96986"
       sodipodi:argument="-18.532732"
       sodipodi:t0="0"
       d="m -117.91501,95.937019 c 1.61843,0.530631 0.0832,2.443401 -0.88194,2.689931 -2.61547,0.668082 -4.51784,-2.152217 -4.49792,-4.453816 0.0356,-4.117022 4.2236,-6.717057 8.02569,-6.305907 5.57972,0.603378 8.96083,6.315637 8.11389,11.597564 -1.12883,7.039979 -8.41402,11.222349 -15.16943,9.921879 -8.501,-1.63651 -13.49281,-10.515196 -11.72987,-18.741308 2.13515,-9.962923 12.61789,-15.768381 22.31318,-13.537859 11.42556,2.628593 18.047167,14.72154 15.345849,25.885057 -3.11878,12.88873 -16.825809,20.32809 -29.456929,17.15384 -14.35229,-3.6068 -22.61052,-18.93053 -18.96183,-33.028809 4.09329,-15.816143 21.03557,-24.894037 36.60068,-20.769811 17.280232,4.578671 27.178374,23.14085 22.577802,40.17255"
       transform="matrix(1.3256371,0,0,1.0735884,77.144331,-101.57307)" />
    <path
       sodipodi:type="spiral"
       style="fill:none;fill-rule:evenodd;stroke:#000000;stroke-width:0.26458332"
       id="path844"
       sodipodi:cx="263.61417"
       sodipodi:cy="95.937019"
       sodipodi:expansion="1"
       sodipodi:revolution="3"
       sodipodi:radius="9.241498"
       sodipodi:argument="-20.007942"
       sodipodi:t0="0"
       d="m 263.61417,95.937019 c 0.18572,-0.424505 0.66385,0.04091 0.70555,0.308681 0.11301,0.725635 -0.70014,1.167585 -1.32291,1.102431 -1.114,-0.116547 -1.70937,-1.318192 -1.49931,-2.337152 0.30827,-1.495366 1.94299,-2.262683 3.35139,-1.896182 1.87717,0.488487 2.82063,2.569969 2.29305,4.365624 -0.6639,2.259647 -3.19793,3.380939 -5.37986,2.689929 -2.6426,-0.836896 -3.94258,-3.826445 -3.0868,-6.394092 1.0085,-3.025884 4.4553,-4.505079 7.40833,-3.483684 3.40939,1.179242 5.06813,5.084376 3.88056,8.422568 -1.3494,3.793068 -5.71361,5.631588 -9.43681,4.277438 -4.17685,-1.51916 -6.19532,-6.342969 -4.67431,-10.451044 1.68862,-4.560741 6.97241,-6.759278 11.46528,-5.071184" />
  </g>
</svg>
